<?xml version="1.0" encoding="UTF-8"?>
<svg version="1.1" xmlns="http://www.w3.org/2000/svg" width="500" height="500">
<path d="M0 0 C165 0 330 0 500 0 C500 165 500 330 500 500 C335 500 170 500 0 500 C0 335 0 170 0 0 Z " fill="#FEFEFE" transform="translate(0,0)"/>
<path d="M0 0 C0.33 0 0.66 0 1 0 C1.33 2.64 1.66 5.28 2 8 C4.97 8 7.94 8 11 8 C9 10 9 10 5.875 10.125 C4.92625 10.08375 3.9775 10.0425 3 10 C3.33 12.64 3.66 15.28 4 18 C5.01578125 17.80664062 6.0315625 17.61328125 7.078125 17.4140625 C13.58740536 16.17998167 20.09895926 14.95496809 26.625 13.8125 C27.52476562 13.65394531 28.42453125 13.49539062 29.3515625 13.33203125 C32 13 32 13 38 13 C39.98 17.62 41.96 22.24 44 27 C44.37511719 25.86820313 44.75023437 24.73640625 45.13671875 23.5703125 C45.6526463 22.08819335 46.16962871 20.6064411 46.6875 19.125 C46.93177734 18.37863281 47.17605469 17.63226563 47.42773438 16.86328125 C49.38162078 11.37261312 49.38162078 11.37261312 52.4375 9.53125 C55.97504785 8.79785593 59.40335179 8.36576084 63 8 C60.47971988 16.93668189 57.2674137 25.57698954 53.96484375 34.25 C53.56910156 35.31992188 53.17335938 36.38984375 52.765625 37.4921875 C52.40243164 38.45495605 52.03923828 39.41772461 51.66503906 40.40966797 C50.96042603 43.15414092 50.91734193 44.4102087 52 47 C52.7425 47.7425 53.485 48.485 54.25 49.25 C59.16049306 54.16049306 62.2800144 58.38343999 62.625 65.5 C62.32720679 71.18158102 60.6166284 74.69025854 57 79 C56.46503906 79.65613281 55.93007813 80.31226563 55.37890625 80.98828125 C36.00754829 102.44258093 -0.31664869 107.94371017 -27.1875 112.3125 C-28.15236328 112.47161865 -29.11722656 112.6307373 -30.11132812 112.79467773 C-42.9181101 114.77475967 -55.79581086 115.15947304 -68.734375 115.203125 C-69.40403542 115.20595238 -70.07369583 115.20877975 -70.76364899 115.21169281 C-74.31558089 115.22652747 -77.86747391 115.2358527 -81.41943359 115.24023438 C-84.28512502 115.24459039 -87.15051052 115.25839293 -90.01611328 115.28125 C-116.33622972 115.48672959 -142.82801554 114.49777056 -168.265625 107.04296875 C-176.74379237 104.56072456 -184.32164135 105.08590892 -193 106 C-193 103.69 -193 101.38 -193 99 C-193.99 99 -194.98 99 -196 99 C-196 101.64 -196 104.28 -196 107 C-201.11012467 108.54445292 -206.18216249 109.69786575 -211.4375 110.625 C-212.50581055 110.82609375 -212.50581055 110.82609375 -213.59570312 111.03125 C-226.00257231 113.23992063 -226.00257231 113.23992063 -230.19458008 110.63769531 C-233.03322543 106.49047093 -232.61054218 102.37699073 -232.6015625 97.4609375 C-232.61013275 96.42490387 -232.618703 95.38887024 -232.62753296 94.32144165 C-232.63901724 92.12757282 -232.64002167 89.93362783 -232.63134766 87.73974609 C-232.6250607 84.40717708 -232.67181802 81.07821916 -232.72265625 77.74609375 C-232.72720616 75.60937945 -232.7286074 73.47265567 -232.7265625 71.3359375 C-232.74498199 70.35015717 -232.76340149 69.36437683 -232.78237915 68.34872437 C-232.6767282 60.31455454 -229.99365394 54.32777496 -224.52651978 48.40324402 C-217.02597306 41.63433402 -208.09043417 37.19472911 -199 33 C-198.01386719 32.47921875 -197.02773437 31.9584375 -196.01171875 31.421875 C-190.78743341 28.95541603 -185.15668783 27.91667722 -179.55566406 26.61083984 C-176.81726385 25.95632348 -174.09320326 25.25502496 -171.3671875 24.55078125 C-142.4541687 17.23610996 -114.21099869 15.63518018 -84.5625 15.625 C-83.53151876 15.62343273 -83.53151876 15.62343273 -82.47970963 15.6218338 C-66.54256073 15.59960391 -50.80305089 15.81110744 -35 18 C-33.88391357 18.15210938 -32.76782715 18.30421875 -31.61791992 18.4609375 C-27.93862568 18.98232282 -24.26571034 19.53605537 -20.59570312 20.11914062 C-13.32058843 21.1888539 -7.19575507 20.57407142 0 19 C0 16.36 0 13.72 0 11 C-3.3 11 -6.6 11 -10 11 C-6.81237635 8.87491756 -4.73487777 8.4979837 -1 8 C-0.67 5.36 -0.34 2.72 0 0 Z " fill="#0F0C09" transform="translate(335,185)"/>
<path d="M0 0 C0.95736053 0.00059418 1.91472107 0.00118835 2.90109253 0.00180054 C31.63972485 0.07002812 31.63972485 0.07002812 43.625 2.25 C43.625 2.58 43.625 2.91 43.625 3.25 C39.995 3.91 36.365 4.57 32.625 5.25 C32.295 13.5 31.965 21.75 31.625 30.25 C30.635 30.58 29.645 30.91 28.625 31.25 C28.295 23 27.965 14.75 27.625 6.25 C22.49392229 7.23427468 22.49392229 7.23427468 17.36401367 8.22460938 C14.40459587 8.78597429 11.64377934 9.25 8.625 9.25 C8.295 26.08 7.965 42.91 7.625 60.25 C12.905 59.26 18.185 58.27 23.625 57.25 C24.945 57.25 26.265 57.25 27.625 57.25 C27.625 52.63 27.625 48.01 27.625 43.25 C28.615 42.92 29.605 42.59 30.625 42.25 C30.625 46.87 30.625 51.49 30.625 56.25 C31.73012939 56.03794922 32.83525879 55.82589844 33.97387695 55.60742188 C38.07149344 54.82192943 42.16979343 54.04005567 46.26831055 53.25927734 C48.04258803 52.92074786 49.81667823 52.58123532 51.59057617 52.24072266 C54.1393256 51.75164794 56.68872606 51.26610436 59.23828125 50.78125 C60.03212723 50.62813354 60.82597321 50.47501709 61.64387512 50.31726074 C64.68355853 49.74200954 67.52367422 49.25 70.625 49.25 C70.61976318 48.51587891 70.61452637 47.78175781 70.60913086 47.02539062 C70.52485132 33.39557585 70.45966326 19.83865879 71.625 6.25 C72.615 6.745 72.615 6.745 73.625 7.25 C73.295 20.78 72.965 34.31 72.625 48.25 C77.905 47.26 83.185 46.27 88.625 45.25 C89.945 45.25 91.265 45.25 92.625 45.25 C92.61339844 44.39277344 92.60179687 43.53554687 92.58984375 42.65234375 C92.49606501 30.76923773 92.49606501 30.76923773 93.625 25.25 C95.36456658 23.51043342 97.8186622 23.87809614 100.1875 23.6875 C102.8790625 23.4709375 102.8790625 23.4709375 105.625 23.25 C105.625 19.29 105.625 15.33 105.625 11.25 C104.635 11.58 103.645 11.91 102.625 12.25 C96.08401639 12.4795082 96.08401639 12.4795082 93.625 11.25 C93.625 9.27 93.625 7.29 93.625 5.25 C98.75419186 3.14571616 103.1860835 3.03244334 108.625 3.25 C109.13160156 4.57064453 109.13160156 4.57064453 109.6484375 5.91796875 C110.09445312 7.07941406 110.54046875 8.24085938 111 9.4375 C111.44085938 10.58605469 111.88171875 11.73460937 112.3359375 12.91796875 C113.51418368 16.11929742 113.51418368 16.11929742 114.78125 18.5625 C116.08001821 22.69931726 115.83347356 26.75719057 115.75 31.0625 C115.74097656 31.94615234 115.73195313 32.82980469 115.72265625 33.74023438 C115.69919637 35.91027359 115.66332865 38.08017247 115.625 40.25 C117.28789062 39.92515625 117.28789062 39.92515625 118.984375 39.59375 C120.44787953 39.31230682 121.91142327 39.0310675 123.375 38.75 C124.10460937 38.60691406 124.83421875 38.46382812 125.5859375 38.31640625 C129.01843532 37.66111121 132.11669491 37.25 135.625 37.25 C136.04655993 43.36261902 135.73926669 46.39727518 131.625 51.25 C126.61926508 56.44617049 120.33664679 60.60850961 113.625 63.25 C111.40234375 63.0703125 111.40234375 63.0703125 109.625 62.25 C107.875 59.6875 107.875 59.6875 106.625 57.25 C106.23828125 57.72050781 105.8515625 58.19101562 105.453125 58.67578125 C102.69473002 61.97356535 100.1083055 64.70450752 96.625 67.25 C96.625 67.91 96.625 68.57 96.625 69.25 C79.12944286 74.46366558 61.74052349 77.26839892 43.625 79.25 C42.91124207 79.33702682 42.19748413 79.42405365 41.46209717 79.51371765 C34.28065513 80.33116763 27.15226734 80.41143036 19.9296875 80.41796875 C18.62460236 80.42129715 17.31951721 80.42462555 15.97488403 80.42805481 C13.21648331 80.43401066 10.45811372 80.43589887 7.69970703 80.43530273 C4.92490007 80.43522221 2.15026079 80.44205039 -0.62451172 80.45581055 C-24.14361624 80.570593 -47.21866756 79.63566902 -70.375 75.25 C-70.375 74.92 -70.375 74.59 -70.375 74.25 C-69.50717896 74.13724731 -69.50717896 74.13724731 -68.62182617 74.0222168 C-50.95699312 72.65774233 -50.95699312 72.65774233 -35.25 65.8125 C-32.04693389 61.43497632 -32.21213483 57.43012847 -32.05859375 52.078125 C-32.0274221 51.0544986 -32.0274221 51.0544986 -31.99562073 50.01019287 C-31.93047948 47.84022644 -31.87140596 45.67014376 -31.8125 43.5 C-31.76928103 42.02472779 -31.72566568 40.54946713 -31.68164062 39.07421875 C-31.57483482 35.46626834 -31.47346847 31.85818867 -31.375 28.25 C-29.725 27.92 -28.075 27.59 -26.375 27.25 C-26.375 40.45 -26.375 53.65 -26.375 67.25 C-22.085 66.26 -17.795 65.27 -13.375 64.25 C-11.04736998 63.87892855 -8.71624795 63.52223813 -6.375 63.25 C-6.38080078 62.47760986 -6.38660156 61.70521973 -6.39257812 60.90942383 C-6.42748701 52.57305635 -6.21198168 44.26641203 -5.875 35.9375 C-5.82730469 34.70837891 -5.77960938 33.47925781 -5.73046875 32.21289062 C-5.61421484 29.22516512 -5.49569607 26.23754877 -5.375 23.25 C-0.425 22.26 -0.425 22.26 4.625 21.25 C4.955 17.62 5.285 13.99 5.625 10.25 C4.53034424 10.46205078 3.43568848 10.67410156 2.30786133 10.89257812 C-1.76335108 11.67996153 -5.8357138 12.46124851 -9.90844727 13.24072266 C-11.66918262 13.5785843 -13.42960401 13.91808651 -15.18969727 14.25927734 C-17.72330772 14.75011518 -20.25799792 15.23499358 -22.79296875 15.71875 C-23.57649216 15.87186646 -24.36001556 16.02498291 -25.1672821 16.18273926 C-28.95910385 16.90047685 -32.49449824 17.43912802 -36.375 17.25 C-36.705 17.91 -37.035 18.57 -37.375 19.25 C-39.29541016 19.59594727 -39.29541016 19.59594727 -41.7890625 19.75390625 C-47.206347 20.19457891 -52.42822709 21.1046279 -57.75 22.1875 C-58.62527344 22.35701172 -59.50054687 22.52652344 -60.40234375 22.70117188 C-61.24667969 22.87068359 -62.09101563 23.04019531 -62.9609375 23.21484375 C-63.7142334 23.3655835 -64.4675293 23.51632324 -65.24365234 23.67163086 C-68.49314885 24.55071535 -68.49314885 24.55071535 -71.375 26.25 C-74.05642786 31.17960527 -74.769237 35.05222322 -74.88671875 40.71484375 C-74.90466995 41.39301651 -74.92262115 42.07118927 -74.94111633 42.76991272 C-74.99474943 44.90904757 -75.02896044 47.04796558 -75.0625 49.1875 C-75.09571492 50.64911843 -75.13020837 52.1107084 -75.16601562 53.57226562 C-75.25044603 57.1313021 -75.3174797 60.69041512 -75.375 64.25 C-78.99473402 65.56626692 -81.47067131 66.25 -85.375 66.25 C-85.375 53.38 -85.375 40.51 -85.375 27.25 C-92.8 28.735 -92.8 28.735 -100.375 30.25 C-102.025 30.25 -103.675 30.25 -105.375 30.25 C-105.36339844 31.4153125 -105.35179687 32.580625 -105.33984375 33.78125 C-105.25053437 47.29487502 -105.71800019 60.7535464 -106.375 74.25 C-107.365 74.25 -108.355 74.25 -109.375 74.25 C-109.375 76.89 -109.375 79.53 -109.375 82.25 C-109.705 82.25 -110.035 82.25 -110.375 82.25 C-110.4020043 80.79176788 -110.42139787 79.33339325 -110.4375 77.875 C-110.44910156 77.06289063 -110.46070313 76.25078125 -110.47265625 75.4140625 C-110.375 73.25 -110.375 73.25 -109.375 71.25 C-111.27100369 71.56146472 -113.16679587 71.87421717 -115.0625 72.1875 C-116.64611328 72.44853516 -116.64611328 72.44853516 -118.26171875 72.71484375 C-120.97434828 73.18113013 -123.67603618 73.71020724 -126.375 74.25 C-126.045 65.01 -125.715 55.77 -125.375 46.25 C-119.95074554 44.44191518 -114.96313343 43.30721443 -109.375 42.25 C-109.045 38.62 -108.715 34.99 -108.375 31.25 C-115.965 32.57 -123.555 33.89 -131.375 35.25 C-126.61660161 27.31933602 -120.73922482 22.98402894 -112.375 19.25 C-108.5 24 -108.5 24 -107.375 26.25 C-106.98828125 25.68410156 -106.6015625 25.11820313 -106.203125 24.53515625 C-105.68234375 23.80167969 -105.1615625 23.06820312 -104.625 22.3125 C-104.11453125 21.58160156 -103.6040625 20.85070312 -103.078125 20.09765625 C-101.18322085 18.04194601 -100.10074271 17.62330824 -97.375 17.25 C-97.87 15.27 -97.87 15.27 -98.375 13.25 C-66.75024583 2.63311824 -33.1497307 -0.02267493 0 0 Z " fill="#111110" transform="translate(248.375,209.75)"/>
<path d="M0 0 C0.14759932 17.35995061 -0.23524658 34.6567754 -1 52 C-4.93716736 52.79332676 -8.87479439 53.58434958 -12.8125 54.375 C-14.46282227 54.70757812 -14.46282227 54.70757812 -16.14648438 55.046875 C-21.45091198 56.11088998 -26.75781567 57.16143468 -32.07421875 58.1640625 C-32.92975342 58.32600098 -33.78528809 58.48793945 -34.66674805 58.65478516 C-37 59 -37 59 -41 59 C-41 54.38 -41 49.76 -41 45 C-41.99 45.495 -41.99 45.495 -43 46 C-43.47001033 49.27555608 -43.47001033 49.27555608 -43.625 53.0625 C-43.69976562 54.35285156 -43.77453125 55.64320313 -43.8515625 56.97265625 C-43.90054687 57.97167969 -43.94953125 58.97070312 -44 60 C-46.39469729 60.50604924 -48.79051717 61.00499517 -51.1875 61.5 C-51.86103516 61.64308594 -52.53457031 61.78617187 -53.22851562 61.93359375 C-56.89290919 62.68434755 -60.26919233 63.06757689 -64 63 C-64.02486237 57.18335272 -64.04293649 51.36673691 -64.05493164 45.55004883 C-64.05993641 43.5744574 -64.06674225 41.59886964 -64.07543945 39.62329102 C-64.08767492 36.77098686 -64.09326702 33.91873201 -64.09765625 31.06640625 C-64.10281754 30.19415909 -64.10797882 29.32191193 -64.11329651 28.42323303 C-64.11337204 27.58304123 -64.11344757 26.74284943 -64.11352539 25.87719727 C-64.115746 25.15105728 -64.11796661 24.4249173 -64.12025452 23.67677307 C-63.94476825 19.77058367 -63.43180154 15.8862139 -63 12 C-56.4 10.68 -49.8 9.36 -43 8 C-43 16.58 -43 25.16 -43 34 C-42.01 33.505 -42.01 33.505 -41 33 C-40.67 24.75 -40.34 16.5 -40 8 C-36.12194291 6.7073143 -32.91239478 5.69069948 -28.98828125 5 C-28.06466797 4.835 -27.14105469 4.67 -26.18945312 4.5 C-25.24005859 4.335 -24.29066406 4.17 -23.3125 4 C-22.38244141 3.835 -21.45238281 3.67 -20.49414062 3.5 C-18.61962624 3.16744582 -16.74478873 2.83670777 -14.86962891 2.5078125 C-10.94497516 1.81330171 -7.02552259 1.09111864 -3.10620117 0.3671875 C-1 0 -1 0 0 0 Z " fill="#0B0701" transform="translate(320,207)"/>
<path d="M0 0 C1.55809664 3.11619329 1.20493878 6.43657822 1.23828125 9.859375 C1.246353 10.64137268 1.25442474 11.42337036 1.26274109 12.22906494 C1.2765822 13.88673689 1.28730424 15.54443735 1.29516602 17.20214844 C1.31233991 19.72646879 1.35621865 22.24946586 1.40039062 24.7734375 C1.4105213 26.38540705 1.41903623 27.99738773 1.42578125 29.609375 C1.44328934 30.35958923 1.46079742 31.10980347 1.47883606 31.88275146 C1.45758956 37.06689755 0.47833128 40.13802924 -3 44 C-5.63793945 45.14013672 -5.63793945 45.14013672 -8.61328125 45.6796875 C-9.69673828 45.8859375 -10.78019531 46.0921875 -11.89648438 46.3046875 C-13.02376953 46.49289062 -14.15105469 46.68109375 -15.3125 46.875 C-16.42818359 47.08640625 -17.54386719 47.2978125 -18.69335938 47.515625 C-24.1699504 48.51550054 -29.43038476 49.39277964 -35 49 C-35.33 48.67 -35.66 48.34 -36 48 C-36.33 48.99 -36.66 49.98 -37 51 C-40.93210031 51.71541165 -44.86480373 52.42739889 -48.7980957 53.13623047 C-50.13583076 53.37780425 -51.47339786 53.62031006 -52.81079102 53.86376953 C-54.73409226 54.21372037 -56.65805435 54.56003308 -58.58203125 54.90625 C-59.73936768 55.11572266 -60.8967041 55.32519531 -62.08911133 55.54101562 C-65 56 -65 56 -68 56 C-68.13610807 40.63491145 -67.74993656 25.34691613 -67 10 C-60.07 9.01 -60.07 9.01 -53 8 C-53 20.87 -53 33.74 -53 47 C-49.37 46.34 -45.74 45.68 -42 45 C-40.35 45 -38.7 45 -37 45 C-37.01571045 43.96593018 -37.0314209 42.93186035 -37.04760742 41.86645508 C-37.10204054 38.01806473 -37.13639849 34.16970821 -37.16479492 30.32104492 C-37.17985114 28.65757519 -37.20030063 26.99414495 -37.22631836 25.33081055 C-37.26284207 22.93528478 -37.27975782 20.54028533 -37.29296875 18.14453125 C-37.30845261 17.4047554 -37.32393646 16.66497955 -37.33988953 15.90278625 C-37.34134062 11.41777082 -36.86833812 8.50484794 -34 5 C-29.54386075 2.02748956 -23.86293469 1.70793748 -18.6875 0.8125 C-17.15706055 0.52729492 -17.15706055 0.52729492 -15.59570312 0.23632812 C-10.11740014 -0.72334874 -5.42739735 -1.41486634 0 0 Z " fill="#F1901C" transform="translate(213,232)"/>
<path d="M0 0 C2 2 2 2 2.375 5.6875 C2.18021054 11.37740272 -0.11487082 15.03192514 -3.953125 19.0390625 C-8.85846694 23.61852508 -13.98736033 27.04343014 -20 30 C-19.67 30.99 -19.34 31.98 -19 33 C-20.72526042 34.13932292 -22.45052083 35.27864583 -24.17578125 36.41796875 C-26.18093326 37.93733714 -26.18093326 37.93733714 -27.16015625 40.51953125 C-30.01453199 44.36778728 -33.57702026 44.58431896 -38.125 45.5 C-39.0428125 45.70085205 -39.960625 45.9017041 -40.90625 46.10864258 C-43.93303398 46.76263687 -46.96543677 47.38317665 -50 48 C-52.16407764 48.45175039 -54.32813995 48.90357422 -56.4921875 49.35546875 C-76.99614193 53.58517671 -96.77453181 56.13241096 -117.734375 56.203125 C-118.40403542 56.20595238 -119.07369583 56.20877975 -119.76364899 56.21169281 C-123.31558089 56.22652747 -126.86747391 56.2358527 -130.41943359 56.24023438 C-133.28512502 56.24459039 -136.15051052 56.25839293 -139.01611328 56.28125 C-164.39967166 56.47941794 -189.23890756 55.02689347 -214 49 C-215.26328125 48.69578125 -216.5265625 48.3915625 -217.828125 48.078125 C-220.55785402 47.40521505 -223.28139318 46.71627964 -226 46 C-225.67 45.34 -225.34 44.68 -225 44 C-222.12890625 43.40234375 -222.12890625 43.40234375 -218.5625 42.9375 C-214.13296298 42.45941296 -214.13296298 42.45941296 -210 41 C-208.35769636 40.8754514 -206.70947724 40.82431476 -205.0625 40.8125 C-203.74958984 40.79123047 -203.74958984 40.79123047 -202.41015625 40.76953125 C-199.48138697 40.9674664 -196.83110969 41.38355104 -193.95922852 41.9453125 C-174.59974002 45.51782958 -154.7405711 45.34628405 -135.12670898 45.31219482 C-131.80184992 45.31270172 -128.47712722 45.34032133 -125.15234375 45.36132812 C-98.90021629 45.42490998 -72.46744607 43.0765495 -47.03466797 36.26977539 C-44.25067502 35.52682129 -41.89913292 35 -39 35 C-39.33 34.01 -39.66 33.02 -40 32 C-38.9275 31.278125 -37.855 30.55625 -36.75 29.8125 C-33.58005232 27.56203004 -31.2738006 25.18332084 -29 22 C-27.02 24.97 -27.02 24.97 -25 28 C-17.16374269 26.87848061 -9.46005273 22.14716663 -4.3125 16.1875 C-1.41783128 12.19755123 -0.83169685 10.21798989 -0.4375 5.375 C-0.35371094 4.37210938 -0.26992188 3.36921875 -0.18359375 2.3359375 C-0.12300781 1.56507813 -0.06242188 0.79421875 0 0 Z " fill="#161514" transform="translate(384,244)"/>
<path d="M0 0 C-1.38877354 3.35620271 -2.91677965 5.07298728 -6 7 C-6.66 7 -7.32 7 -8 7 C-8 7.66 -8 8.32 -8 9 C-7.01 9.33 -6.02 9.66 -5 10 C-6.97234143 11.48913974 -8.94939397 12.9640828 -10.96484375 14.39453125 C-15.86601889 17.91755418 -20.2453949 21.49078979 -23 27 C-22.41508789 26.87882812 -21.83017578 26.75765625 -21.22753906 26.6328125 C-18.56917856 26.08447951 -15.90962157 25.54218181 -13.25 25 C-12.32960938 24.80921875 -11.40921875 24.6184375 -10.4609375 24.421875 C-9.12675781 24.15117187 -9.12675781 24.15117187 -7.765625 23.875 C-6.94868164 23.70742187 -6.13173828 23.53984375 -5.29003906 23.3671875 C-3 23 -3 23 1 23 C1 26.63 1 30.26 1 34 C-4.37321841 35.97960678 -9.19839948 36.8396799 -15 38 C-15.66 47.24 -16.32 56.48 -17 66 C-14.525 65.01 -14.525 65.01 -12 64 C-8.00340866 63.46845837 -4.02714003 63.26552572 0 63 C-0.495 68.94 -0.495 68.94 -1 75 C-4.66528006 75.67518317 -8.33191697 76.34036903 -12 77 C-13.02996094 77.19078125 -14.05992188 77.3815625 -15.12109375 77.578125 C-30.02451515 80.23606003 -30.02451515 80.23606003 -34.18115234 77.63525391 C-37.03984529 73.49341073 -36.610552 69.38236552 -36.6015625 64.4609375 C-36.61013275 63.42490387 -36.618703 62.38887024 -36.62753296 61.32144165 C-36.63901724 59.12757282 -36.64002167 56.93362783 -36.63134766 54.73974609 C-36.6250607 51.40717708 -36.67181802 48.07821916 -36.72265625 44.74609375 C-36.72720616 42.60937945 -36.7286074 40.47265567 -36.7265625 38.3359375 C-36.74498199 37.35015717 -36.76340149 36.36437683 -36.78237915 35.34872437 C-36.6767282 27.31455454 -33.99365394 21.32777496 -28.52651978 15.40324402 C-21.69814633 9.24094052 -9.40813338 0 0 0 Z " fill="#100A03" transform="translate(139,218)"/>
<path d="M0 0 C0 14.85 0 29.7 0 45 C-10 47 -10 47 -15 47 C-15 42.71 -15 38.42 -15 34 C-19.455 34.495 -19.455 34.495 -24 35 C-24 39.95 -24 44.9 -24 50 C-28.62 50.66 -33.24 51.32 -38 52 C-38.19148936 19.31914894 -38.19148936 19.31914894 -37 6 C-35.4176994 5.66179834 -33.83410625 5.32964061 -32.25 5 C-31.36828125 4.814375 -30.4865625 4.62875 -29.578125 4.4375 C-27 4 -27 4 -23 4 C-23 12.25 -23 20.5 -23 29 C-20.03 28.67 -17.06 28.34 -14 28 C-14 19.42 -14 10.84 -14 2 C-7 0 -7 0 0 0 Z " fill="#F2911C" transform="translate(297,215)"/>
<path d="M0 0 C0 2.31 0 4.62 0 7 C-5.61 7.66 -11.22 8.32 -17 9 C-16.98839844 10.7840625 -16.97679688 12.568125 -16.96484375 14.40625 C-16.95546049 16.77083228 -16.94636086 19.1354157 -16.9375 21.5 C-16.92912109 22.67304688 -16.92074219 23.84609375 -16.91210938 25.0546875 C-16.89502156 31.13794882 -17.05497248 36.98754144 -18 43 C-16.94039062 42.7834375 -15.88078125 42.566875 -14.7890625 42.34375 C-13.40106222 42.06239859 -12.01304025 41.78115414 -10.625 41.5 C-9.92632812 41.35691406 -9.22765625 41.21382813 -8.5078125 41.06640625 C-3.2265625 40 -3.2265625 40 -1 40 C-1 41.98 -1 43.96 -1 46 C-4.35206538 46.67753075 -7.70693575 47.3400352 -11.0625 48 C-12.47692383 48.28617187 -12.47692383 48.28617187 -13.91992188 48.578125 C-26.8125 51.09375 -26.8125 51.09375 -31 49 C-31.12381149 43.53743725 -31.21443826 38.07569512 -31.2746582 32.61206055 C-31.29976702 30.75449391 -31.33386134 28.89702573 -31.37719727 27.03979492 C-31.43801124 24.36612642 -31.4662452 21.69376635 -31.48828125 19.01953125 C-31.51408768 18.19226028 -31.5398941 17.36498932 -31.56648254 16.51264954 C-31.56856624 12.20665946 -31.40677096 10.52289358 -28.67553711 7.01196289 C-23.51095433 3.12827581 -16.98535876 2.51504694 -10.75 1.375 C-9.69039062 1.17390625 -9.69039062 1.17390625 -8.609375 0.96875 C-5.69281229 0.42741829 -2.97323377 0 0 0 Z " fill="#F08F1C" transform="translate(137,244)"/>
<path d="M0 0 C0.598125 0.20625 1.19625 0.4125 1.8125 0.625 C1.45422119 1.51582275 1.09594238 2.40664551 0.72680664 3.32446289 C-0.62367746 6.69893738 -1.9453574 10.08413529 -3.25952148 13.47290039 C-3.8271729 14.92541549 -4.40213253 16.37510017 -4.98510742 17.8215332 C-9.08979596 28.02481851 -10.98003602 36.58925486 -11.1875 47.625 C-15.8075 48.285 -20.4275 48.945 -25.1875 49.625 C-25.166875 47.294375 -25.14625 44.96375 -25.125 42.5625 C-25.42442934 31.52132029 -29.95500153 21.87516011 -34.37719727 11.9206543 C-35.1875 9.625 -35.1875 9.625 -35.1875 5.625 C-28.2575 4.635 -28.2575 4.635 -21.1875 3.625 C-20.01673771 6.58177211 -18.85073329 9.54026743 -17.6875 12.5 C-17.35363281 13.34175781 -17.01976562 14.18351563 -16.67578125 15.05078125 C-16.35996094 15.85644531 -16.04414063 16.66210938 -15.71875 17.4921875 C-15.27885742 18.60762939 -15.27885742 18.60762939 -14.83007812 19.74560547 C-14.1875 21.625 -14.1875 21.625 -14.1875 23.625 C-13.5275 23.625 -12.8675 23.625 -12.1875 23.625 C-12.08179688 22.80515625 -11.97609375 21.9853125 -11.8671875 21.140625 C-11.07150093 17.02500482 -9.78247221 13.29014549 -8.3125 9.375 C-8.05597656 8.65570313 -7.79945313 7.93640625 -7.53515625 7.1953125 C-4.56229726 -0.7821081 -4.56229726 -0.7821081 0 0 Z " fill="#F0901C" transform="translate(392.1875,197.375)"/>
<path d="M0 0 C0 1.98 0 3.96 0 6 C-5.28 6.66 -10.56 7.32 -16 8 C-16 12.62 -16 17.24 -16 22 C-12.04 21.67 -8.08 21.34 -4 21 C-4 22.65 -4 24.3 -4 26 C-5.41538717 26.33872513 -6.83237963 26.67074624 -8.25 27 C-9.03890625 27.185625 -9.8278125 27.37125 -10.640625 27.5625 C-13 28 -13 28 -17 28 C-17 34.93 -17 41.86 -17 49 C-21.62 49.66 -26.24 50.32 -31 51 C-31.09914961 45.41330092 -31.17160105 39.82711814 -31.21972656 34.23974609 C-31.23979629 32.34056675 -31.26705851 30.44144885 -31.30175781 28.54248047 C-31.35048109 25.80681161 -31.37301507 23.07196229 -31.390625 20.3359375 C-31.41127014 19.49195404 -31.43191528 18.64797058 -31.45318604 17.77841187 C-31.45522185 12.3851934 -30.66931556 9.23347438 -27 5 C-24.08203125 3.828125 -24.08203125 3.828125 -20.8125 3.25 C-19.08966797 2.92322266 -19.08966797 2.92322266 -17.33203125 2.58984375 C-16.23246094 2.39519531 -15.13289063 2.20054687 -14 2 C-12.33133553 1.61267496 -10.66431915 1.21809038 -9 0.8125 C-5.94503613 0.13174378 -3.1460445 -0.20297061 0 0 Z " fill="#F0901C" transform="translate(355,204)"/>
<path d="M0 0 C0 1.98 0 3.96 0 6 C-3.3 6.66 -6.6 7.32 -10 8 C-10.02505615 8.96301025 -10.0501123 9.92602051 -10.07592773 10.91821289 C-10.17064271 14.51712617 -10.27070252 18.115875 -10.37231445 21.71459961 C-10.41542245 23.26729464 -10.45711268 24.82002974 -10.49731445 26.37280273 C-10.5556069 28.61454303 -10.61912578 30.85608604 -10.68359375 33.09765625 C-10.70866249 34.12621483 -10.70866249 34.12621483 -10.73423767 35.17555237 C-10.86702582 39.57063562 -11.37146132 43.60022927 -12 48 C-16.62 48.66 -21.24 49.32 -26 50 C-26 37.13 -26 24.26 -26 11 C-29.3 11.33 -32.6 11.66 -36 12 C-36 10.02 -36 8.04 -36 6 C-31.19488403 5.14332688 -26.38937894 4.28888392 -21.58349609 3.43652344 C-19.94796987 3.14612414 -18.31255251 2.8551111 -16.67724609 2.56347656 C-14.32938393 2.14487652 -11.9811417 1.72847087 -9.6328125 1.3125 C-8.53273361 1.11563599 -8.53273361 1.11563599 -7.41043091 0.91479492 C-2.22774341 0 -2.22774341 0 0 0 Z " fill="#EC8D1B" transform="translate(251,223)"/>
<path d="M0 0 C0 12.87 0 25.74 0 39 C3.63 38.34 7.26 37.68 11 37 C12.65 37 14.3 37 16 37 C17.24546405 39.49092811 16.7767578 40.41080733 16 43 C12.06789969 43.71541165 8.13519627 44.42739889 4.2019043 45.13623047 C2.86416924 45.37780425 1.52660214 45.62031006 0.18920898 45.86376953 C-1.73409226 46.21372037 -3.65805435 46.56003308 -5.58203125 46.90625 C-6.73936768 47.11572266 -7.8967041 47.32519531 -9.08911133 47.54101562 C-12 48 -12 48 -15 48 C-15.13609886 32.63595086 -14.75980105 17.34555626 -14 2 C-12.04200486 1.66468585 -10.08359226 1.33180857 -8.125 1 C-6.48917969 0.7215625 -6.48917969 0.7215625 -4.8203125 0.4375 C-2 0 -2 0 0 0 Z " fill="#EF8F1C" transform="translate(160,240)"/>
<path d="M0 0 C0.16833006 15.35544246 -0.35935779 30.65890715 -1 46 C-5.62 46.66 -10.24 47.32 -15 48 C-15 33.15 -15 18.3 -15 3 C-9.43379367 1.14459789 -5.74008748 -0.05655259 0 0 Z " fill="#F0901C" transform="translate(317,211)"/>
<path d="M0 0 C2 2 2 2 2.375 5.6875 C2.18021054 11.37740272 -0.11487082 15.03192514 -3.953125 19.0390625 C-8.85846694 23.61852508 -13.98736033 27.04343014 -20 30 C-19.67 30.99 -19.34 31.98 -19 33 C-20.093125 33.721875 -21.18625 34.44375 -22.3125 35.1875 C-25.45410872 37.41333613 -27.29364433 39.48691479 -29 43 C-29.99 42.67 -30.98 42.34 -32 42 C-32 41.01 -32 40.02 -32 39 C-33.47569721 37.00833526 -33.47569721 37.00833526 -36 36 C-38.64178316 36.52278847 -40.862424 37.16396289 -43.375 38.0625 C-53.77584842 41.40791366 -64.1930967 43.44227835 -75 45 C-76.05251953 45.15243164 -77.10503906 45.30486328 -78.18945312 45.46191406 C-119.89126376 51.13071568 -166.90948617 52.00649819 -208 42 C-208 41.67 -208 41.34 -208 41 C-203.09603347 40.83921421 -198.66181316 40.96783145 -193.84814453 41.9387207 C-174.54988258 45.57830696 -154.68803532 45.34619274 -135.12670898 45.31219482 C-131.80184992 45.31270172 -128.47712722 45.34032133 -125.15234375 45.36132812 C-98.90021629 45.42490998 -72.46744607 43.0765495 -47.03466797 36.26977539 C-44.25067502 35.52682129 -41.89913292 35 -39 35 C-39.33 34.01 -39.66 33.02 -40 32 C-38.9275 31.278125 -37.855 30.55625 -36.75 29.8125 C-33.58005232 27.56203004 -31.2738006 25.18332084 -29 22 C-27.02 24.97 -27.02 24.97 -25 28 C-17.16374269 26.87848061 -9.46005273 22.14716663 -4.3125 16.1875 C-1.41783128 12.19755123 -0.83169685 10.21798989 -0.4375 5.375 C-0.35371094 4.37210938 -0.26992188 3.36921875 -0.18359375 2.3359375 C-0.12300781 1.56507813 -0.06242188 0.79421875 0 0 Z " fill="#D6811B" transform="translate(384,244)"/>
<path d="M0 0 C6.07158114 3.18035203 9.39993028 7.67286789 12 14 C13.07497163 19.49684077 12.81454937 24.27884905 10 29.1875 C9.04209515 30.49035673 8.0395078 31.76127449 7 33 C6.46503906 33.65613281 5.93007813 34.31226563 5.37890625 34.98828125 C-2.68612333 43.92051832 -15.57811071 50.49294339 -27 54 C-27.66 53.67 -28.32 53.34 -29 53 C-26.58443874 49.80800833 -24.31996462 47.25283313 -21 45 C-21.66 44.34 -22.32 43.68 -23 43 C-22.0821875 42.52691406 -21.164375 42.05382812 -20.21875 41.56640625 C-11.98962083 37.18448745 -3.12960274 32.38880823 0 23 C0.1934855 17.76350439 0.1934855 17.76350439 -0.5625 12.625 C-1.26855939 8.38864366 -0.53480468 4.2372986 0 0 Z " fill="#161514" transform="translate(385,231)"/>
<path d="M0 0 C3.16682195 0.01927674 6.33358682 0.0231695 9.50045967 0.02671432 C13.3267077 0.03187916 17.15290538 0.04634442 20.97912598 0.06115723 C21.68934025 0.06303795 22.39955452 0.06491867 23.13129044 0.06685638 C44.09589189 0.13886064 44.09589189 0.13886064 47.22131348 3.26428223 C41.17327287 3.37960503 35.20003424 3.22228267 29.16662598 2.77600098 C18.98251588 2.09254797 8.80028745 2.02061523 -1.40368652 2.01428223 C-2.39013153 2.01360748 -3.37657654 2.01293274 -4.39291382 2.01223755 C-34.48044996 2.04472457 -65.60297624 4.28153738 -94.40759277 13.56506348 C-96.77868652 14.26428223 -96.77868652 14.26428223 -99.77868652 14.26428223 C-99.28368652 16.24428223 -99.28368652 16.24428223 -98.77868652 18.26428223 C-99.70681152 18.80053223 -100.63493652 19.33678223 -101.59118652 19.88928223 C-105.01885131 22.44322854 -106.18245502 24.362383 -107.77868652 28.26428223 C-110.11201986 25.93094889 -112.44535319 23.59761556 -114.77868652 21.26428223 C-121.99228063 25.4385139 -127.71008671 29.60417668 -132.77868652 36.26428223 C-133.10868652 35.60428223 -133.43868652 34.94428223 -133.77868652 34.26428223 C-128.86073905 27.99471343 -123.46534324 23.56957428 -116.77868652 19.26428223 C-117.43868652 18.93428223 -118.09868652 18.60428223 -118.77868652 18.26428223 C-118.77868652 17.60428223 -118.77868652 16.94428223 -118.77868652 16.26428223 C-117.35290527 15.15100098 -117.35290527 15.15100098 -115.46618652 13.95178223 C-112.27860662 11.78371169 -110.48975536 9.78707102 -108.77868652 6.26428223 C-107.27309113 8.2281023 -105.88736969 10.04691588 -104.77868652 12.26428223 C-99.67844392 11.84793589 -95.02101128 10.83321664 -90.09118652 9.45178223 C-60.48254566 1.30258071 -30.5160755 -0.22232478 0 0 Z " fill="#C3761A" transform="translate(249.7786865234375,208.7357177734375)"/>
<path d="M0 0 C0.33 0 0.66 0 1 0 C1.33 2.64 1.66 5.28 2 8 C4.97 8 7.94 8 11 8 C9 10 9 10 5.875 10.125 C4.92625 10.08375 3.9775 10.0425 3 10 C3.33 12.64 3.66 15.28 4 18 C5.01578125 17.80664062 6.0315625 17.61328125 7.078125 17.4140625 C13.58740536 16.17998167 20.09895926 14.95496809 26.625 13.8125 C27.52476562 13.65394531 28.42453125 13.49539062 29.3515625 13.33203125 C32 13 32 13 38 13 C39.98 17.62 41.96 22.24 44 27 C44.37511719 25.86820313 44.75023437 24.73640625 45.13671875 23.5703125 C45.6526463 22.08819335 46.16962871 20.6064411 46.6875 19.125 C47.05391602 18.00544922 47.05391602 18.00544922 47.42773438 16.86328125 C49.37576981 11.3890551 49.37576981 11.3890551 52.51953125 9.4296875 C55 9 55 9 58 10 C56.36587557 11.70840281 55.13093906 12.93453047 53 14 C51.96702184 16.21315815 51.96702184 16.21315815 51.0546875 18.91015625 C50.70019531 19.89951172 50.34570312 20.88886719 49.98046875 21.90820312 C49.61566406 22.94912109 49.25085938 23.99003906 48.875 25.0625 C48.50246094 26.10728516 48.12992187 27.15207031 47.74609375 28.22851562 C46.82424396 30.81678618 45.90920963 33.40726774 45 36 C44.34 36 43.68 36 43 36 C41.8278551 33.04380781 40.66322524 30.08471211 39.5 27.125 C39.16613281 26.28324219 38.83226562 25.44148438 38.48828125 24.57421875 C38.17246094 23.76855469 37.85664063 22.96289062 37.53125 22.1328125 C37.23798828 21.38918457 36.94472656 20.64555664 36.64257812 19.87939453 C36 18 36 18 36 16 C35.32453125 16.144375 34.6490625 16.28875 33.953125 16.4375 C33.06109375 16.623125 32.1690625 16.80875 31.25 17 C30.36828125 17.185625 29.4865625 17.37125 28.578125 17.5625 C26 18 26 18 22 18 C21.67 19.98 21.34 21.96 21 24 C20.67 24 20.34 24 20 24 C20 22.35 20 20.7 20 19 C15.89520843 19.80936412 11.79128053 20.62302634 7.6875 21.4375 C6.52025391 21.66759766 5.35300781 21.89769531 4.15039062 22.13476562 C3.03212891 22.35712891 1.91386719 22.57949219 0.76171875 22.80859375 C-0.26993408 23.01282959 -1.30158691 23.21706543 -2.36450195 23.42749023 C-5.08860686 23.96973851 -5.08860686 23.96973851 -8 25 C-8 23.68 -8 22.36 -8 21 C-5.36 20.34 -2.72 19.68 0 19 C0 16.36 0 13.72 0 11 C-3.3 11 -6.6 11 -10 11 C-6.81237635 8.87491756 -4.73487777 8.4979837 -1 8 C-0.67 5.36 -0.34 2.72 0 0 Z " fill="#16120E" transform="translate(335,185)"/>
<path d="M0 0 C-1.38877354 3.35620271 -2.91677965 5.07298728 -6 7 C-6.66 7 -7.32 7 -8 7 C-8 7.66 -8 8.32 -8 9 C-7.01 9.33 -6.02 9.66 -5 10 C-6.97234143 11.48913974 -8.94939397 12.9640828 -10.96484375 14.39453125 C-16.45154991 18.33844082 -20.2364652 22.35469781 -24 28 C-25.7015625 28.4640625 -25.7015625 28.4640625 -27.4375 28.9375 C-30.91383015 29.71960605 -30.91383015 29.71960605 -32.875 31.5625 C-34.57260701 35.24064853 -34.75148506 38.98948309 -35 43 C-35.33 43 -35.66 43 -36 43 C-37.12301185 26.23800832 -37.12301185 26.23800832 -32.14453125 19.30078125 C-24.89869054 11.52701044 -11.10095965 0 0 0 Z " fill="#191715" transform="translate(139,218)"/>
<path d="M0 0 C0.13947228 11.37473908 -0.26429134 22.64906646 -1 34 C-5.455 34.495 -5.455 34.495 -10 35 C-10.09674708 23.61609403 -10.1778432 12.33674078 -9 1 C-5.8035914 -0.06546953 -3.34252724 -0.07427838 0 0 Z " fill="#110A02" transform="translate(200,239)"/>
<path d="M0 0 C3.96867411 1.94342289 7.85416565 4.04083909 11.75 6.125 C12.44738281 6.49753906 13.14476562 6.87007813 13.86328125 7.25390625 C15.57577295 8.16879908 17.28792068 9.08433569 19 10 C19 13.3 19 16.6 19 20 C18.01 20 17.02 20 16 20 C16 22.64 16 25.28 16 28 C15.67 28 15.34 28 15 28 C14.9729957 26.54176788 14.95360213 25.08339325 14.9375 23.625 C14.92589844 22.81289063 14.91429687 22.00078125 14.90234375 21.1640625 C15 19 15 19 16 17 C14.10399631 17.31146472 12.20820413 17.62421717 10.3125 17.9375 C9.25675781 18.11152344 8.20101562 18.28554688 7.11328125 18.46484375 C4.39750396 18.93167121 1.69875765 19.44422616 -1 20 C-1.11044961 13.26257354 -0.70132913 6.70019789 0 0 Z " fill="#1B1A19" transform="translate(123,264)"/>
<path d="M0 0 C2 2 2 2 2.375 5.6875 C2.18021054 11.37740272 -0.11487082 15.03192514 -3.953125 19.0390625 C-8.85846694 23.61852508 -13.98736033 27.04343014 -20 30 C-19.67 30.99 -19.34 31.98 -19 33 C-20.093125 33.721875 -21.18625 34.44375 -22.3125 35.1875 C-25.45410872 37.41333613 -27.29364433 39.48691479 -29 43 C-29.99 42.67 -30.98 42.34 -32 42 C-32 41.01 -32 40.02 -32 39 C-34.49529367 36.68294159 -36.65980694 35.59646305 -40 35 C-39.875 33.25 -39.875 33.25 -39 31 C-37.02053408 29.63636792 -35.0180755 28.30581356 -33 27 C-30.67722584 24.3908613 -30.67722584 24.3908613 -29 22 C-27.02 24.97 -27.02 24.97 -25 28 C-17.16374269 26.87848061 -9.46005273 22.14716663 -4.3125 16.1875 C-1.41783128 12.19755123 -0.83169685 10.21798989 -0.4375 5.375 C-0.35371094 4.37210938 -0.26992188 3.36921875 -0.18359375 2.3359375 C-0.09271484 1.17964844 -0.09271484 1.17964844 0 0 Z " fill="#E68B1D" transform="translate(384,244)"/>
<path d="M0 0 C0.391875 0.556875 0.78375 1.11375 1.1875 1.6875 C3.7022667 4.89599544 6.31322114 8.15661057 10 10 C10 10.66 10 11.32 10 12 C9.071875 12.5775 8.14375 13.155 7.1875 13.75 C3.69157513 16.21771167 2.5966213 18.09714793 1 22 C-1.33333333 19.66666667 -3.66666667 17.33333333 -6 15 C-13.21359411 19.17423167 -18.93140019 23.33989445 -24 30 C-24.33 29.34 -24.66 28.68 -25 28 C-20.08205253 21.73043121 -14.68665672 17.30529205 -8 13 C-8.66 12.67 -9.32 12.34 -10 12 C-10 11.34 -10 10.68 -10 10 C-8.57421875 8.88671875 -8.57421875 8.88671875 -6.6875 7.6875 C-3.4999201 5.51942946 -1.71106884 3.52278879 0 0 Z " fill="#EB8E1D" transform="translate(141,215)"/>
<path d="M0 0 C0.86343824 2.12124966 1.71550648 4.24713072 2.5625 6.375 C3.03816406 7.55835938 3.51382812 8.74171875 4.00390625 9.9609375 C5 13 5 13 4 15 C1.69 14.01 -0.62 13.02 -3 12 C-3 10.68 -3 9.36 -3 8 C-3.99 8.33 -4.98 8.66 -6 9 C-12.54098361 9.2295082 -12.54098361 9.2295082 -15 8 C-15 6.02 -15 4.04 -15 2 C-9.87080814 -0.10428384 -5.4389165 -0.21755666 0 0 Z " fill="#433525" transform="translate(357,213)"/>
<path d="M0 0 C4.92302951 -0.1614108 9.37689862 -0.02620526 14.2109375 0.94140625 C19.40541407 1.91919007 24.54719902 2.61238287 29.8125 3.0625 C31.25109375 3.1860083 31.25109375 3.1860083 32.71875 3.31201172 C51.75533252 4.74771575 70.91922813 4.70171137 90 5 C90 5.33 90 5.66 90 6 C29.70556128 8.23399679 29.70556128 8.23399679 0 1 C0 0.67 0 0.34 0 0 Z " fill="#A96718" transform="translate(176,285)"/>
<path d="M0 0 C-2.01913147 6.9550982 -4.26599857 13.80030913 -6.6875 20.625 C-7.00783203 21.53378906 -7.32816406 22.44257813 -7.65820312 23.37890625 C-8.43673314 25.58667793 -9.21735244 27.79368537 -10 30 C-10.99 29.67 -11.98 29.34 -13 29 C-12.40325061 25.67525341 -11.58941016 22.6446323 -10.37109375 19.49609375 C-10.05849609 18.67302734 -9.74589844 17.84996094 -9.42382812 17.00195312 C-8.76446337 15.28760477 -8.10299258 13.57406499 -7.43945312 11.86132812 C-7.12814453 11.03955078 -6.81683594 10.21777344 -6.49609375 9.37109375 C-6.20919678 8.62786865 -5.9222998 7.88464355 -5.62670898 7.11889648 C-4.81091628 4.72898242 -4.81091628 4.72898242 -5 1 C-3 0 -3 0 0 0 Z " fill="#120E08" transform="translate(398,193)"/>
<path d="M0 0 C0.99 0 1.98 0 3 0 C3.09908936 9.39146903 3.12998844 18.65741704 2 28 C1.01 28 0.02 28 -1 28 C-1.02727678 25.02076997 -1.04697128 22.04179621 -1.0625 19.0625 C-1.07087891 18.23169922 -1.07925781 17.40089844 -1.08789062 16.54492188 C-1.10966956 10.94773559 -0.71159268 5.55266418 0 0 Z " fill="#0E0E0E" transform="translate(194,242)"/>
<path d="M0 0 C0.33 0 0.66 0 1 0 C1.33 2.64 1.66 5.28 2 8 C4.97 8 7.94 8 11 8 C9 10 9 10 5.875 10.125 C4.92625 10.08375 3.9775 10.0425 3 10 C3 12.97 3 15.94 3 19 C2.34 19 1.68 19 1 19 C0.67 16.36 0.34 13.72 0 11 C-3.3 11 -6.6 11 -10 11 C-6.81237635 8.87491756 -4.73487777 8.4979837 -1 8 C-0.67 5.36 -0.34 2.72 0 0 Z " fill="#494949" transform="translate(335,185)"/>
<path d="M0 0 C3.3 1.65 6.6 3.3 10 5 C10 5.33 10 5.66 10 6 C6.7 6.33 3.4 6.66 0 7 C0 4.69 0 2.38 0 0 Z " fill="#F3F3F3" transform="translate(123,276)"/>
<path d="M0 0 C3.96867411 1.94342289 7.85416565 4.04083909 11.75 6.125 C12.44738281 6.49753906 13.14476562 6.87007813 13.86328125 7.25390625 C15.57577295 8.16879908 17.28792068 9.08433569 19 10 C18.67 10.66 18.34 11.32 18 12 C15.74743959 10.9008228 13.49801826 9.79589789 11.25 8.6875 C10.61578125 8.37876953 9.9815625 8.07003906 9.328125 7.75195312 C5.98707829 6.09883105 2.78131418 4.50739687 0 2 C0 1.34 0 0.68 0 0 Z " fill="#D07D1A" transform="translate(123,264)"/>
<path d="M0 0 C-2.91250399 1.54033121 -5.79616641 2.69524517 -8.9375 3.6875 C-9.77152344 3.95949219 -10.60554688 4.23148437 -11.46484375 4.51171875 C-14.295784 5.05696918 -16.2352016 4.73694984 -19 4 C-15.74582055 2.20432025 -12.53428471 1.22618137 -8.9375 0.3125 C-7.89464844 0.04050781 -6.85179687 -0.23148437 -5.77734375 -0.51171875 C-3 -1 -3 -1 0 0 Z " fill="#B87019" transform="translate(345,280)"/>
<path d="M0 0 C0.33 0.66 0.66 1.32 1 2 C-2.96 2.66 -6.92 3.32 -11 4 C-11 3.01 -11 2.02 -11 1 C-3.29268293 -1.51969981 -3.29268293 -1.51969981 0 0 Z " fill="#181410" transform="translate(131,292)"/>
<path d="M0 0 C-1.63412443 1.70840281 -2.86906094 2.93453047 -5 4 C-5.99 5.485 -5.99 5.485 -7 7 C-7.99 7.33 -8.98 7.66 -10 8 C-9.3125 4.625 -9.3125 4.625 -8 1 C-4.71770407 -1.01987442 -3.69177042 -1.23059014 0 0 Z " fill="#1C1814" transform="translate(393,195)"/>
<path d="M0 0 C1.98 0 3.96 0 6 0 C4.02 4.455 4.02 4.455 2 9 C1.34 9 0.68 9 0 9 C0 6.03 0 3.06 0 0 Z " fill="#2A2015" transform="translate(320,207)"/>
<path d="M0 0 C0 0.33 0 0.66 0 1 C-1.60226955 1.22245393 -3.20696767 1.42746669 -4.8125 1.625 C-5.70582031 1.74101562 -6.59914063 1.85703125 -7.51953125 1.9765625 C-10 2 -10 2 -13 0 C-8.37078475 -1.0161692 -4.65537393 -0.83796731 0 0 Z " fill="#A96719" transform="translate(315,287)"/>
<path d="M0 0 C0.625 1.8125 0.625 1.8125 1 4 C0.01 5.485 0.01 5.485 -1 7 C-1.66 6.67 -2.32 6.34 -3 6 C-2.625 3.5625 -2.625 3.5625 -2 1 C-1.34 0.67 -0.68 0.34 0 0 Z " fill="#1A140C" transform="translate(388,216)"/>
</svg>
