<?xml version="1.0" standalone="no"?>
<!DOCTYPE svg PUBLIC "-//W3C//DTD SVG 20010904//EN"
 "http://www.w3.org/TR/2001/REC-SVG-20010904/DTD/svg10.dtd">
<svg version="1.0" xmlns="http://www.w3.org/2000/svg"
 width="500.000000pt" height="500.000000pt" viewBox="0 0 500.000000 500.000000"
 preserveAspectRatio="xMidYMid meet">

<g transform="translate(0.000000,500.000000) scale(0.100000,-0.100000)"
fill="#000000" stroke="none">
<path d="M0 2500 l0 -2500 2500 0 2500 0 0 2500 0 2500 -2500 0 -2500 0 0
-2500z m2710 2293 c360 -48 718 -195 1025 -422 127 -93 350 -317 445 -444 95
-129 190 -289 237 -399 l38 -88 35 7 c45 8 67 7 102 -8 64 -26 74 -116 33
-297 -14 -61 -25 -121 -25 -133 0 -22 0 -22 19 2 10 13 26 40 36 59 39 79 88
100 154 65 55 -28 58 -59 16 -197 -51 -173 -94 -257 -155 -310 l-50 -43 0 -97
c0 -54 -7 -146 -15 -206 -101 -721 -546 -1346 -1195 -1677 -318 -162 -593
-232 -951 -242 -282 -8 -491 22 -750 107 -674 222 -1200 743 -1422 1407 -40
118 -50 138 -91 180 -57 58 -111 164 -131 258 -19 89 -19 270 0 357 14 68 77
214 114 267 11 15 29 70 41 121 164 753 699 1364 1425 1625 335 121 695 158
1065 108z"/>
<path d="M2130 4625 c-686 -91 -1283 -522 -1580 -1140 -58 -121 -127 -301
-118 -310 2 -3 18 0 35 7 26 10 34 23 62 102 154 430 474 804 889 1040 199
113 443 196 697 237 120 20 466 17 589 -4 505 -88 916 -321 1232 -698 54 -64
70 -77 99 -81 19 -2 35 -1 35 2 0 16 -145 188 -231 272 -306 300 -692 496
-1114 565 -129 21 -464 25 -595 8z"/>
<path d="M2556 4346 c-3 -14 -19 -32 -34 -40 -16 -9 -21 -15 -11 -16 21 0 49
-32 49 -56 1 -13 5 -8 15 14 8 18 24 36 36 40 19 7 20 10 6 15 -9 3 -25 20
-36 37 l-19 31 -6 -25z"/>
<path d="M2221 4310 c-4 -166 -87 -255 -250 -269 l-76 -7 78 -7 c99 -10 117
-17 172 -68 51 -47 74 -107 76 -198 1 -54 2 -53 14 31 23 159 86 219 247 235
l73 7 -78 8 c-57 5 -91 14 -123 33 -52 31 -101 94 -108 139 -3 17 -9 58 -14
91 l-9 60 -2 -55z"/>
<path d="M2731 3932 c-2 -69 -52 -121 -118 -123 -20 -1 -15 -4 17 -10 59 -11
100 -54 101 -107 1 -20 3 -28 6 -17 19 86 42 112 111 126 l37 7 -33 1 c-48 2
-100 54 -111 111 -8 41 -9 42 -10 12z"/>
<path d="M3892 3694 c-92 -46 -156 -143 -216 -326 l-34 -103 -50 -10 c-60 -12
-82 -29 -82 -64 0 -38 17 -51 67 -51 l44 0 -6 -32 c-3 -18 -11 -74 -19 -124
-8 -51 -22 -104 -32 -119 -24 -37 -69 -56 -106 -43 -44 16 -54 65 -34 174 18
102 21 177 6 205 -16 30 -70 25 -103 -8 -45 -48 -69 -115 -107 -306 -16 -80
-57 -127 -110 -127 -69 0 -80 37 -58 182 19 128 -15 195 -106 205 -66 8 -122
-17 -186 -82 -30 -30 -58 -55 -62 -55 -19 0 -5 103 28 205 57 178 55 245 -7
245 -95 0 -146 -121 -223 -535 -23 -124 -42 -199 -54 -215 -65 -87 -188 -95
-227 -15 -28 61 -13 173 28 199 12 8 48 19 79 26 67 13 88 35 88 91 0 50 -15
60 -80 52 l-53 -6 7 34 c28 150 18 187 -49 175 -40 -8 -57 -29 -84 -108 -28
-82 -47 -104 -108 -133 -51 -24 -54 -28 -48 -53 9 -37 34 -62 62 -62 28 0 28
6 3 -116 -26 -126 -35 -147 -77 -184 -57 -50 -68 -43 -69 48 -2 148 -53 255
-138 287 -59 23 -155 16 -214 -14 -99 -51 -188 -164 -223 -286 -36 -125 -65
-164 -136 -179 -27 -6 -37 -3 -59 19 -26 26 -26 30 -21 108 7 106 27 205 84
403 50 176 51 208 6 225 -19 7 -34 5 -62 -8 -70 -35 -110 -148 -177 -503 -20
-107 -43 -207 -50 -223 -48 -92 -253 -152 -388 -113 -74 22 -138 79 -160 143
-58 170 52 382 199 383 74 0 96 -53 69 -162 -16 -69 -16 -72 1 -85 38 -27 100
-7 167 56 84 77 124 203 95 301 -31 105 -101 149 -233 150 -133 0 -240 -42
-345 -137 -157 -142 -247 -394 -219 -617 31 -253 152 -392 350 -404 163 -9
311 61 413 197 l45 60 11 -43 c27 -109 119 -143 232 -86 46 24 97 83 134 155
l28 56 29 -51 c16 -29 46 -62 70 -77 37 -25 51 -28 122 -28 66 0 90 5 131 24
55 28 121 89 158 149 21 32 33 40 65 45 21 4 57 20 80 37 l42 30 0 -25 c0 -36
27 -95 58 -128 50 -52 123 -56 212 -11 52 26 86 59 129 128 21 34 31 43 31 30
1 -39 38 -103 71 -119 60 -32 139 -1 160 63 9 28 9 56 -1 129 -15 110 -8 178
25 243 27 53 61 80 103 80 57 0 62 -26 35 -186 -14 -86 -15 -109 -4 -157 15
-68 40 -102 86 -117 85 -28 181 27 252 144 l36 58 13 -38 c19 -57 46 -87 90
-103 75 -26 163 20 225 117 l28 44 10 -39 c6 -21 14 -43 18 -49 30 -44 123
-41 166 4 31 32 52 125 43 184 -6 39 -9 428 -3 434 1 2 40 6 86 10 97 8 114
23 109 96 l-3 43 -40 0 c-22 0 -61 -4 -87 -7 -43 -7 -48 -6 -48 12 0 40 42
130 72 155 43 37 78 31 101 -17 57 -116 178 76 129 203 -28 73 -132 92 -230
43z m-2196 -972 c34 -22 44 -94 20 -140 -26 -50 -64 -77 -108 -77 -42 0 -63
18 -75 63 -18 73 44 162 114 162 21 0 43 -4 49 -8z"/>
<path d="M4187 3529 c-5 -44 -2 -59 25 -112 17 -34 48 -111 68 -172 l37 -110
13 57 c12 53 11 62 -10 120 -25 69 -116 268 -123 268 -2 0 -7 -23 -10 -51z"/>
<path d="M3343 3525 c-75 -32 -97 -146 -39 -203 23 -24 34 -27 89 -27 108 1
165 56 154 151 -7 69 -39 94 -115 94 -31 -1 -72 -7 -89 -15z"/>
<path d="M4492 3384 c-44 -23 -85 -111 -112 -244 -11 -58 -25 -117 -31 -132
-16 -40 -53 -69 -97 -75 -73 -10 -85 38 -57 221 20 135 8 186 -43 186 -44 0
-95 -66 -125 -161 -51 -160 -69 -332 -47 -450 17 -93 70 -143 148 -142 94 1
164 58 203 163 27 75 49 80 49 12 0 -182 -161 -331 -304 -281 -36 13 -75 53
-89 92 -7 19 -55 -31 -68 -70 -28 -86 -8 -197 47 -262 58 -67 162 -88 274 -55
115 34 194 158 236 369 10 50 19 92 21 94 1 2 9 -2 18 -9 23 -19 80 -4 120 32
45 39 95 143 135 281 33 117 31 137 -15 137 -18 0 -31 -14 -55 -56 -42 -76
-72 -104 -109 -104 -60 0 -64 39 -20 241 37 171 34 210 -21 223 -14 4 -39 -1
-58 -10z"/>
<path d="M4382 2207 c-25 -26 -38 -54 -53 -113 -147 -573 -530 -1041 -1064
-1299 -282 -136 -545 -196 -865 -197 -244 -1 -452 34 -676 113 -528 186 -980
621 -1178 1136 -32 82 -36 88 -65 91 -17 2 -31 1 -31 -2 0 -19 68 -182 113
-272 301 -599 876 -1013 1542 -1109 128 -19 441 -22 555 -5 477 68 857 257
1191 590 218 218 372 458 477 745 39 109 96 327 90 346 -2 5 -18 -6 -36 -24z"/>
</g>
</svg>
